<svg width="1024" height="1024" viewBox="0 0 1024 1024" xmlns="http://www.w3.org/2000/svg" role="img" aria-labelledby="title desc">
  <title id="title">Tentoonstelling tijdelijke afbeelding</title>
  <desc id="desc">Donkerblauwe kleurverloopachtergrond met subtiel kader en monogram "dede" als tijdelijke afbeelding voor een tentoonstelling.</desc>
  <defs>
    <linearGradient id="background" x1="0%" y1="0%" x2="0%" y2="100%">
      <stop offset="0%" stop-color="#3c4a5a" />
      <stop offset="45%" stop-color="#2c3644" />
      <stop offset="100%" stop-color="#1c2430" />
    </linearGradient>
    <linearGradient id="gloss" x1="0%" y1="0%" x2="100%" y2="100%">
      <stop offset="0%" stop-color="#ffffff" stop-opacity="0.1" />
      <stop offset="100%" stop-color="#ffffff" stop-opacity="0" />
    </linearGradient>
  </defs>
  <rect width="1024" height="1024" fill="url(#background)" rx="64" />
  <rect x="32" y="32" width="960" height="960" rx="56" fill="none" stroke="#253142" stroke-width="4" />
  <rect x="32" y="32" width="960" height="960" rx="56" fill="url(#gloss)" opacity="0.2" />
  <g fill="#f2f6fb" transform="translate(512 512)">
    <path d="M-116 -20c0 -64 52 -116 116 -116s116 52 116 116-52 116-116 116-116-52-116-116zm24 0c0 51 41 92 92 92s92-41 92-92-41-92-92-92-92 41-92 92z" opacity="0.35" />
    <text x="0" y="24" font-family="'DM Sans', 'Segoe UI', sans-serif" font-size="120" font-weight="600" text-anchor="middle" letter-spacing="0.08em">DEDE</text>
  </g>
</svg>
