<svg xmlns="http://www.w3.org/2000/svg" viewBox="0 0 400 400" role="img" aria-hidden="true">
  <rect width="400" height="400" fill="#f1e4c4" />
  <rect x="0" y="0" width="200" height="200" fill="#f1e4c4" />
  <rect x="200" y="0" width="200" height="200" fill="#87a2aa" />
  <rect x="0" y="200" width="260" height="200" fill="#d6c49b" />
  <rect x="260" y="200" width="140" height="200" fill="#597b8d" />
  <rect x="30" y="40" width="120" height="120" fill="#87a2aa" />
  <rect x="260" y="60" width="70" height="70" fill="#f1e4c4" />
  <g fill="#2f5b73">
    <rect x="220" y="180" width="80" height="140" />
    <polygon points="260,120 220,180 300,180" />
    <polygon points="260,120 200,140 220,200" />
    <polygon points="260,120 320,140 300,200" />
    <polygon points="260,120 240,60 280,60" />
  </g>
  <g>
    <rect x="40" y="260" width="40" height="80" fill="#d95f2a" />
    <rect x="110" y="260" width="40" height="80" fill="#597b8d" />
    <rect x="330" y="260" width="40" height="80" fill="#d95f2a" />
  </g>
</svg>
