<svg width="320" height="240" viewBox="0 0 320 240" fill="none" xmlns="http://www.w3.org/2000/svg">
  <rect x="24" y="32" width="272" height="176" rx="24" fill="#E0F2FE"/>
  <rect x="56" y="60" width="208" height="120" rx="16" fill="#ffffff"/>
  <path d="M104 84h112v12H104z" fill="#DBEAFE"/>
  <rect x="104" y="108" width="72" height="12" rx="6" fill="#BFDBFE"/>
  <rect x="104" y="132" width="96" height="12" rx="6" fill="#BFDBFE" opacity="0.75"/>
  <rect x="104" y="156" width="56" height="12" rx="6" fill="#BFDBFE" opacity="0.5"/>
  <path d="M148 56c0-8.837 7.163-16 16-16s16 7.163 16 16v136l-16-12-16 12V56z" fill="#2563EB"/>
  <circle cx="98" cy="144" r="14" fill="#FDE68A"/>
  <path d="M98 134l3.09 6.26 6.91 1.01-5 4.87 1.18 6.86-6.18-3.25-6.18 3.25 1.18-6.86-5-4.87 6.91-1.01L98 134z" fill="#FBBF24"/>
  <circle cx="222" cy="108" r="18" fill="#FECACA"/>
  <path d="M222 96l5.657 5.657 5.657-5.657L238.314 102l-5.657 5.657L238.314 113l-5.657 5.657-5.657-5.657L216.343 113l5.657-5.657-5.657-5.657L222 96z" fill="#F87171"/>
  <path d="M60 200h200" stroke="#BFDBFE" stroke-width="4" stroke-linecap="round"/>
  <path d="M104 200c0 8.837 7.163 16 16 16h80c8.837 0 16-7.163 16-16" stroke="#93C5FD" stroke-width="4" stroke-linecap="round"/>
</svg>
