<svg width="420" height="160" viewBox="0 0 420 160" fill="none" xmlns="http://www.w3.org/2000/svg">
  <defs>
    <linearGradient id="logo-bg" x1="210" y1="0" x2="210" y2="160" gradientUnits="userSpaceOnUse">
      <stop offset="0" stop-color="#1d3d40" />
      <stop offset="1" stop-color="#0d1f21" />
    </linearGradient>
    <linearGradient id="logo-highlight" x1="92" y1="24" x2="92" y2="136" gradientUnits="userSpaceOnUse">
      <stop offset="0" stop-color="#3cf5df" />
      <stop offset="1" stop-color="#24cbb6" />
    </linearGradient>
  </defs>
  <rect width="420" height="160" rx="36" fill="url(#logo-bg)" />
  <g transform="translate(52 24)">
    <rect x="0" y="0" width="60" height="112" rx="22" fill="url(#logo-highlight)" />
    <rect x="18" y="20" width="24" height="72" rx="12" fill="#143636" opacity="0.35" />
    <path d="M92 0h44c34 0 54 18 54 46 0 18-9.6 32-26.2 39.4C183.6 92.4 194 108.6 194 130c0 30.6-21.4 50-56 50H92V0Z" fill="url(#logo-highlight)" transform="translate(-4 -8) scale(.82)" />
    <path d="M108 20h28c16 0 26 7.8 26 21.2 0 10.8-6 18.2-15.8 20.8 12.4 2.6 20.4 12.4 20.4 25 0 17-12.4 27-32.6 27H108V20Z" fill="url(#logo-highlight)" opacity="0.55" transform="translate(18 0)" />
    <path d="M112 24h18c12 0 19 6 19 16 0 8.8-6.2 14.4-16.4 14.4H112V24Z" fill="#112729" />
    <path d="M112 64h20c13.2 0 21.4 6.8 21.4 18.2 0 11.8-8.6 18.6-22.2 18.6H112V64Z" fill="#112729" />
  </g>
  <text x="200" y="76" fill="#d5f7f1" font-family="'Inter', 'Helvetica Neue', Arial, sans-serif" font-weight="600" font-size="40" letter-spacing="0.04em">Museum</text>
  <text x="200" y="122" fill="#9eeae0" font-family="'Inter', 'Helvetica Neue', Arial, sans-serif" font-weight="700" font-size="44" letter-spacing="0.02em">Buddy</text>
</svg>
