<svg xmlns="http://www.w3.org/2000/svg" viewBox="0 0 64 64">
  <defs>
    <linearGradient id="bg" x1="0" y1="0" x2="1" y2="1">
      <stop offset="0" stop-color="#0d1420"/>
      <stop offset="1" stop-color="#1b2f46"/>
    </linearGradient>
    <linearGradient id="beam" x1="0" y1="0" x2="1" y2="1">
      <stop offset="0" stop-color="#2be4ff" stop-opacity="0.9"/>
      <stop offset="1" stop-color="#42ffb0" stop-opacity="0.3"/>
    </linearGradient>
    <linearGradient id="flare" x1="0" y1="0" x2="0" y2="1">
      <stop offset="0" stop-color="#ffffff" stop-opacity="0.2"/>
      <stop offset="1" stop-color="#ffffff" stop-opacity="0"/>
    </linearGradient>
  </defs>
  <rect width="64" height="64" rx="14" fill="url(#bg)"/>
  <path d="M-4 42 L38 -4 72 4 22 64Z" fill="url(#beam)" opacity="0.55"/>
  <path d="M6 52 C20 44 44 44 58 52" fill="none" stroke="#142032" stroke-width="6" stroke-linecap="round" opacity="0.55"/>
  <path d="M12 50 H52" stroke="url(#flare)" stroke-width="4" stroke-linecap="round"/>
  <g fill="none" stroke-linecap="round" stroke-linejoin="round">
    <path d="M16 46 V18 L26 28 L36 18 V46" stroke="#f5f8ff" stroke-width="3.5"/>
    <path d="M36 18 H46 C52 18 54 22 54 28 C54 33.5 50 36 46 36 H36" stroke="#f5f8ff" stroke-width="3.5"/>
    <path d="M46 36 C52 36 56 39 56 44 C56 50 51 54 44 54 H36 V46" stroke="#00e6c3" stroke-width="3" opacity="0.9"/>
    <circle cx="30" cy="14" r="5" stroke="#6dfffa" stroke-width="2" opacity="0.7"/>
  </g>
</svg>
